<svg xmlns="http://www.w3.org/2000/svg" width="420mm" height="297mm" viewBox="0 0 420 297" font-family="Helvetica, Arial, sans-serif">
<rect width="420" height="297" fill="#fff"/><rect x="8" y="8" width="404" height="281" fill="none" stroke="#111" stroke-width=".6"/>
<text x="14" y="19" font-size="6" text-anchor="start" font-weight="bold" fill="#111">Saab 99 Turbo, model 1979 — Instruments and warning lamps</text>
<text x="14" y="25.5" font-size="2.8" text-anchor="start" font-weight="normal" fill="#444">Redrawn from Saab Service Manual 1975–1980, diagram p. 371-28/29 (PDF p. 406–407). Component numbers as in the manual.</text>
<rect x="150" y="70" width="140" height="120" rx="1.2" fill="#fafafa" stroke="#111" stroke-width="0.8"/>
<text x="150" y="66" font-size="3" text-anchor="start" font-weight="bold" fill="#111">47 Combination instrument (C9)</text>
<circle cx="150" cy="90" r="1.0" fill="#111"/>
<text x="151.8" y="88.4" font-size="2.3" text-anchor="start" font-weight="normal" fill="#111">9</text>
<circle cx="150" cy="150" r="1.0" fill="#111"/>
<text x="151.8" y="148.4" font-size="2.3" text-anchor="start" font-weight="normal" fill="#111">1</text>
<circle cx="200" cy="70" r="1.0" fill="#111"/>
<text x="201.8" y="73.4" font-size="2.3" text-anchor="start" font-weight="normal" fill="#111">11</text>
<circle cx="235" cy="70" r="1.0" fill="#111"/>
<text x="236.8" y="73.4" font-size="2.3" text-anchor="start" font-weight="normal" fill="#111">12</text>
<circle cx="270" cy="70" r="1.0" fill="#111"/>
<text x="271.8" y="73.4" font-size="2.3" text-anchor="start" font-weight="normal" fill="#111">3</text>
<circle cx="170" cy="190" r="1.0" fill="#111"/>
<text x="171.8" y="188.4" font-size="2.3" text-anchor="start" font-weight="normal" fill="#111">7a</text>
<circle cx="200" cy="190" r="1.0" fill="#111"/>
<text x="201.8" y="188.4" font-size="2.3" text-anchor="start" font-weight="normal" fill="#111">5</text>
<circle cx="230" cy="190" r="1.0" fill="#111"/>
<text x="231.8" y="188.4" font-size="2.3" text-anchor="start" font-weight="normal" fill="#111">6</text>
<circle cx="260" cy="190" r="1.0" fill="#111"/>
<text x="261.8" y="188.4" font-size="2.3" text-anchor="start" font-weight="normal" fill="#111">2</text>
<circle cx="280" cy="190" r="1.0" fill="#111"/>
<text x="281.8" y="188.4" font-size="2.3" text-anchor="start" font-weight="normal" fill="#111">4</text>
<circle cx="180" cy="90" r="11" fill="#fff" stroke="#111" stroke-width=".7"/>
<text x="180" y="91.2" font-size="3" text-anchor="middle" font-weight="normal" fill="#111">°C</text>
<path d="M150,90 H169" stroke="#111" stroke-width=".5"/>
<text x="180" y="105.5" font-size="2.3" text-anchor="middle" font-weight="normal" fill="#111">temperature</text>
<circle cx="270" cy="110" r="11" fill="#fff" stroke="#111" stroke-width=".7"/>
<text x="270" y="111.2" font-size="3" text-anchor="middle" font-weight="normal" fill="#111">fuel</text>
<path d="M270,70 V99" stroke="#111" stroke-width=".5"/>
<text x="270" y="125.5" font-size="2.3" text-anchor="middle" font-weight="normal" fill="#111">fuel gauge</text>
<path d="M200,70 L200,84" stroke="#111" stroke-width=".5"/>
<circle cx="200" cy="84" r="3.5" fill="#fff" stroke="#111" stroke-width=".6"/>
<path d="M197.55,81.55 L202.45,86.45 M197.55,86.45 L202.45,81.55" stroke="#111" stroke-width=".45"/>
<text x="200" y="92" font-size="2.2" text-anchor="middle" font-weight="normal" fill="#111">oil</text>
<path d="M235,70 L235,84" stroke="#111" stroke-width=".5"/>
<circle cx="235" cy="84" r="3.5" fill="#fff" stroke="#111" stroke-width=".6"/>
<path d="M232.55,81.55 L237.45,86.45 M232.55,86.45 L237.45,81.55" stroke="#111" stroke-width=".45"/>
<text x="235" y="92" font-size="2.2" text-anchor="middle" font-weight="normal" fill="#111">low fuel</text>
<path d="M150,150 L172,150" stroke="#111" stroke-width=".5"/>
<circle cx="176" cy="150" r="3.5" fill="#fff" stroke="#111" stroke-width=".6"/>
<path d="M173.55,147.55 L178.45,152.45 M173.55,152.45 L178.45,147.55" stroke="#111" stroke-width=".45"/>
<text x="176" y="144.5" font-size="2.2" text-anchor="middle" font-weight="normal" fill="#111">charge</text>
<path d="M170,190 L170,172" stroke="#111" stroke-width=".5"/>
<circle cx="170" cy="172" r="3.5" fill="#fff" stroke="#111" stroke-width=".6"/>
<path d="M167.55,169.55 L172.45,174.45 M167.55,174.45 L172.45,169.55" stroke="#111" stroke-width=".45"/>
<text x="170" y="166.5" font-size="2.2" text-anchor="middle" font-weight="normal" fill="#111">main beam</text>
<path d="M200,190 L200,172" stroke="#111" stroke-width=".5"/>
<circle cx="200" cy="172" r="3.5" fill="#fff" stroke="#111" stroke-width=".6"/>
<path d="M197.55,169.55 L202.45,174.45 M197.55,174.45 L202.45,169.55" stroke="#111" stroke-width=".45"/>
<text x="200" y="166.5" font-size="2.2" text-anchor="middle" font-weight="normal" fill="#111">brake</text>
<path d="M230,190 L230,172" stroke="#111" stroke-width=".5"/>
<circle cx="230" cy="172" r="3.5" fill="#fff" stroke="#111" stroke-width=".6"/>
<path d="M227.55,169.55 L232.45,174.45 M227.55,174.45 L232.45,169.55" stroke="#111" stroke-width=".45"/>
<text x="230" y="166.5" font-size="2.2" text-anchor="middle" font-weight="normal" fill="#111">indicator</text>
<text x="220" y="140" font-size="2.2" text-anchor="middle" font-weight="normal" fill="#777">internal wiring not drawn</text>
<rect x="40.75" y="35.75" width="9.5" height="9.5" fill="#fff" stroke="#111" stroke-width="1.5"/><path d="M41.5,44.5 L49.5,36.5" stroke="#111" stroke-width=".4"/>
<path d="M40,44.5 h-6 v5" stroke="#111" stroke-width=".6" fill="none"/>
<path d="M34,49.5 v3 M31,52.5 h6 M32,53.8 h4 M33,55.1 h2" stroke="#111" stroke-width=".5" fill="none"/>
<text x="45.5" y="32.8" font-size="2.6" text-anchor="middle" font-weight="bold" fill="#111">44</text>
<text x="47.69" y="32.8" font-size="2.6" text-anchor="start" font-weight="normal" fill="#111">Oil warning switch (A2)</text>
<path d="M49.3,45.9 L49.3,50 L200,50 L200,70" fill="none" stroke="#222" stroke-width="1.7" stroke-linejoin="round"/>
<path d="M49.3,45.9 L49.3,50 L200,50 L200,70" fill="none" stroke="#1f5fbf" stroke-width="1.1" stroke-linejoin="round"/>
<rect x="59.4" y="45.5" width="17.400000000000002" height="3.8" fill="#fff" opacity=".85"/>
<text x="60" y="48.5" font-size="2.8" text-anchor="start" font-weight="normal" fill="#111">184 BL 1.0</text>
<rect x="108" y="46.5" width="4" height="7" fill="#ddd" stroke="#111" stroke-width=".5"/>
<text x="110" y="45.0" font-size="2.1" text-anchor="middle" font-weight="normal" fill="#555">58 (A4) pin 5</text>
<rect x="40.75" y="75.75" width="9.5" height="9.5" fill="#fff" stroke="#111" stroke-width="1.5"/><path d="M41.5,84.5 L49.5,76.5" stroke="#111" stroke-width=".4"/>
<path d="M40,84.5 h-6 v5" stroke="#111" stroke-width=".6" fill="none"/>
<path d="M34,89.5 v3 M31,92.5 h6 M32,93.8 h4 M33,95.1 h2" stroke="#111" stroke-width=".5" fill="none"/>
<text x="45.5" y="72.8" font-size="2.6" text-anchor="middle" font-weight="bold" fill="#111">45</text>
<text x="47.69" y="72.8" font-size="2.6" text-anchor="start" font-weight="normal" fill="#111">Temperature transmitter (A2)</text>
<path d="M49.3,85.9 L49.3,90 L150,90" fill="none" stroke="#222" stroke-width="1.7" stroke-linejoin="round"/>
<path d="M49.3,85.9 L49.3,90 L150,90" fill="none" stroke="#f2c500" stroke-width="1.1" stroke-linejoin="round"/>
<rect x="59.4" y="85.5" width="17.400000000000002" height="3.8" fill="#fff" opacity=".85"/>
<text x="60" y="88.5" font-size="2.8" text-anchor="start" font-weight="normal" fill="#111">183 GL 1.0</text>
<rect x="108" y="86.5" width="4" height="7" fill="#ddd" stroke="#111" stroke-width=".5"/>
<text x="110" y="85.0" font-size="2.1" text-anchor="middle" font-weight="normal" fill="#555">58 (A4) pin 6</text>
<rect x="22" y="146" width="34" height="16" rx="1.2" fill="#fafafa" stroke="#111" stroke-width="0.8"/>
<text x="25" y="155" font-size="2.6" text-anchor="start" font-weight="normal" fill="#111"><tspan font-weight="bold">2</tspan> Alternator (B3)</text>
<path d="M56,150 L150,150" fill="none" stroke="#222" stroke-width="1.7" stroke-linejoin="round"/>
<path d="M56,150 L150,150" fill="none" stroke="#d42020" stroke-width="1.1" stroke-linejoin="round"/>
<rect x="59.4" y="145.5" width="19.02" height="3.8" fill="#fff" opacity=".85"/>
<text x="60" y="148.5" font-size="2.8" text-anchor="start" font-weight="normal" fill="#111">195 RD 0.75</text>
<circle cx="56" cy="150" r="1.0" fill="#111"/>
<text x="54.2" y="150.6" font-size="1.8" text-anchor="end" font-weight="normal" fill="#555">D+</text>
<rect x="360" y="82" width="36" height="20" rx="1.2" fill="#fafafa" stroke="#111" stroke-width="0.8"/>
<text x="363" y="89" font-size="2.6" text-anchor="start" font-weight="normal" fill="#111"><tspan font-weight="bold">46</tspan> Fuel level</text>
<text x="363" y="93.5" font-size="2.4" text-anchor="start" font-weight="normal" fill="#111">transmitter (C12)</text>
<path d="M360,88 L330,88 L330,60 L270,60 L270,70" fill="none" stroke="#222" stroke-width="1.7" stroke-linejoin="round"/>
<path d="M360,88 L330,88 L330,60 L270,60 L270,70" fill="none" stroke="#8a8a8a" stroke-width="1.1" stroke-linejoin="round"/>
<rect x="299.4" y="55.5" width="19.02" height="3.8" fill="#fff" opacity=".85"/>
<text x="300" y="58.5" font-size="2.8" text-anchor="start" font-weight="normal" fill="#111">185 GR 0.75</text>
<path d="M360,96 L340,96 L340,54 L235,54 L235,70" fill="none" stroke="#222" stroke-width="1.7" stroke-linejoin="round"/>
<path d="M360,96 L340,96 L340,54 L235,54 L235,70" fill="none" stroke="#7a4a1c" stroke-width="1.1" stroke-linejoin="round"/>
<rect x="299.4" y="49.5" width="19.02" height="3.8" fill="#fff" opacity=".85"/>
<text x="300" y="52.5" font-size="2.8" text-anchor="start" font-weight="normal" fill="#111">186 BR 0.75</text>
<rect x="343" y="84" width="4" height="16" fill="#ddd" stroke="#111" stroke-width=".5"/>
<text x="342" y="81" font-size="2.2" text-anchor="start" font-weight="normal" fill="#555">57 (B12)</text>
<circle cx="340" cy="150" r="12" fill="#fff" stroke="#111" stroke-width=".7"/>
<text x="340" y="151.2" font-size="3" text-anchor="middle" font-weight="normal" fill="#111">r/min</text>
<text x="340" y="168" font-size="2.6" text-anchor="middle" font-weight="bold" fill="#111">110 Tachometer (C11)</text>
<path d="M352,150 L362,150" fill="none" stroke="#222" stroke-width="1.7" stroke-linejoin="round"/>
<path d="M352,150 L362,150" fill="none" stroke="#7a4a1c" stroke-width="1.1" stroke-linejoin="round"/>
<rect x="364" y="147.4" width="35.44800000000001" height="5.2" rx="1" fill="#fff" stroke="#444" stroke-width=".4"/>
<text x="365.5" y="151" font-size="2.6" text-anchor="start" font-weight="normal" fill="#111">203 BR <tspan font-family="Arial">→</tspan> 116 (+ supply?)</text>
<path d="M340,138 L340,130 L346,130" fill="none" stroke="#222" stroke-width="1.7" stroke-linejoin="round"/>
<path d="M340,138 L340,130 L346,130" fill="none" stroke="#f2c500" stroke-width="1.1" stroke-linejoin="round"/>
<rect x="348" y="127.4" width="43.56" height="5.2" rx="1" fill="#fff" stroke="#444" stroke-width=".4"/>
<text x="349.5" y="131" font-size="2.6" text-anchor="start" font-weight="normal" fill="#111">204 GL 0.75 <tspan font-family="Arial">←</tspan> ECU speed signal</text>
<path d="M280,190 L280,196" fill="none" stroke="#222" stroke-width="1.7" stroke-linejoin="round"/>
<path d="M280,190 L280,196" fill="none" stroke="#111111" stroke-width="1.1" stroke-linejoin="round"/>
<path d="M280,196 v3 M277,199 h6 M278,200.3 h4 M279,201.6 h2" stroke="#111" stroke-width=".5" fill="none"/>
<text x="284" y="199" font-size="2.3" text-anchor="start" font-weight="normal" fill="#111">179 SV 0.75</text>
<path d="M260,190 L260,206" fill="none" stroke="#222" stroke-width="1.7" stroke-linejoin="round"/>
<path d="M260,190 L260,206" fill="none" stroke="#7a4a1c" stroke-width="1.1" stroke-linejoin="round"/>
<path d="M260,190 L260,206" fill="none" stroke="#ffffff" stroke-width="0.5" stroke-dasharray="1.2 1.2"/>
<rect x="262" y="203.4" width="65.19200000000001" height="5.2" rx="1" fill="#fff" stroke="#444" stroke-width=".4"/>
<text x="263.5" y="207" font-size="2.6" text-anchor="start" font-weight="normal" fill="#111">182 BR/VT 0.75 <tspan font-family="Arial">←</tspan> fuse 4 (off 85 BR at 58 (D8))</text>
<path d="M230,190 L230,214" fill="none" stroke="#222" stroke-width="1.7" stroke-linejoin="round"/>
<path d="M230,190 L230,214" fill="none" stroke="#1e9e3e" stroke-width="1.1" stroke-linejoin="round"/>
<path d="M230,190 L230,214" fill="none" stroke="#ffffff" stroke-width="0.5" stroke-dasharray="1.2 1.2"/>
<rect x="232" y="211.4" width="61.136" height="5.2" rx="1" fill="#fff" stroke="#444" stroke-width=".4"/>
<text x="233.5" y="215" font-size="2.6" text-anchor="start" font-weight="normal" fill="#111">71 GN/VT 0.75 <tspan font-family="Arial">←</tspan> 23 flasher unit, terminal C</text>
<path d="M200,190 L200,222" fill="none" stroke="#222" stroke-width="1.7" stroke-linejoin="round"/>
<path d="M200,190 L200,222" fill="none" stroke="#ffffff" stroke-width="1.1" stroke-linejoin="round"/>
<rect x="202" y="219.4" width="97.64" height="5.2" rx="1" fill="#fff" stroke="#444" stroke-width=".4"/>
<text x="203.5" y="223" font-size="2.6" text-anchor="start" font-weight="normal" fill="#111">187 VT 0.75 <tspan font-family="Arial">→</tspan> 58 (B9) <tspan font-family="Arial">→</tspan> 188 VT <tspan font-family="Arial">→</tspan> 43 handbrake, 42 brake failure switch</text>
<path d="M170,190 L170,230" fill="none" stroke="#222" stroke-width="1.7" stroke-linejoin="round"/>
<path d="M170,190 L170,230" fill="none" stroke="#1f5fbf" stroke-width="1.1" stroke-linejoin="round"/>
<path d="M170,190 L170,230" fill="none" stroke="#ffffff" stroke-width="0.5" stroke-dasharray="1.2 1.2"/>
<rect x="172" y="227.4" width="74.656" height="5.2" rx="1" fill="#fff" stroke="#444" stroke-width=".4"/>
<text x="173.5" y="231" font-size="2.6" text-anchor="start" font-weight="normal" fill="#111">27 BL/VT 0.75 <tspan font-family="Arial">←</tspan> 8 lighting relay 56a (lighting sheet)</text>
<rect x="18" y="250" width="389" height="37" rx="1.2" fill="#fff" stroke="#111" stroke-width="0.5"/>
<path d="M22,255 h7" stroke="#222" stroke-width="1.7"/><path d="M22,255 h7" stroke="#1f5fbf" stroke-width="1.1"/>
<text x="31" y="256" font-size="2.5" text-anchor="start" font-weight="normal" fill="#111">BL Blue</text>
<path d="M45,255 h7" stroke="#222" stroke-width="1.7"/><path d="M45,255 h7" stroke="#7a4a1c" stroke-width="1.1"/>
<text x="54" y="256" font-size="2.5" text-anchor="start" font-weight="normal" fill="#111">BR Brown</text>
<path d="M68,255 h7" stroke="#222" stroke-width="1.7"/><path d="M68,255 h7" stroke="#f2c500" stroke-width="1.1"/>
<text x="77" y="256" font-size="2.5" text-anchor="start" font-weight="normal" fill="#111">GL Yellow</text>
<path d="M91,255 h7" stroke="#222" stroke-width="1.7"/><path d="M91,255 h7" stroke="#1e9e3e" stroke-width="1.1"/>
<text x="100" y="256" font-size="2.5" text-anchor="start" font-weight="normal" fill="#111">GN Green</text>
<path d="M22,260 h7" stroke="#222" stroke-width="1.7"/><path d="M22,260 h7" stroke="#8a8a8a" stroke-width="1.1"/>
<text x="31" y="261" font-size="2.5" text-anchor="start" font-weight="normal" fill="#111">GR Grey</text>
<path d="M45,260 h7" stroke="#222" stroke-width="1.7"/><path d="M45,260 h7" stroke="#d42020" stroke-width="1.1"/>
<text x="54" y="261" font-size="2.5" text-anchor="start" font-weight="normal" fill="#111">RD Red</text>
<path d="M68,260 h7" stroke="#222" stroke-width="1.7"/><path d="M68,260 h7" stroke="#111111" stroke-width="1.1"/>
<text x="77" y="261" font-size="2.5" text-anchor="start" font-weight="normal" fill="#111">SV Black</text>
<path d="M91,260 h7" stroke="#222" stroke-width="1.7"/><path d="M91,260 h7" stroke="#ffffff" stroke-width="1.1"/>
<text x="100" y="261" font-size="2.5" text-anchor="start" font-weight="normal" fill="#111">VT White</text>
<path d="M22,267 h9" stroke="#222" stroke-width="1.2"/>
<text x="33" y="268" font-size="2.4" text-anchor="start" font-weight="normal" fill="#111">traced (cable no. read)</text>
<text x="126" y="256.0" font-size="2.35" text-anchor="start" font-weight="normal" fill="#333">Terminal numbers are the instrument’s own, from the manual’s diagram. Its internal wiring (common supply, earth) isn’t drawn.</text>
<text x="126" y="261.2" font-size="2.35" text-anchor="start" font-weight="normal" fill="#333">Oil and temperature wires pass connector 58 (A4), pins 5 and 6; the fuel sender wires pass 3-pole connector 57 (B12).</text>
<text x="126" y="266.4" font-size="2.35" text-anchor="start" font-weight="normal" fill="#333">Charge lamp: alternator D+ is 195 RD 0.75. Main-beam lamp: 27 BL/VT from lighting relay 8. Indicator lamp: 71 GN/VT from flasher 23.</text>
<text x="126" y="271.6" font-size="2.35" text-anchor="start" font-weight="normal" fill="#333">Supply: 182 BR/VT from fuse 4, branching off the wiper feed 85 BR at connector 58 (D8). Tachometer: signal 204 GL, supply 203 via 116.</text>
<text x="126" y="276.8" font-size="2.35" text-anchor="start" font-weight="normal" fill="#333">44 and 45 are drawn with the manual’s sender symbol (heavy square with a diagonal, not a winding), each with its own earth lead (no number printed). 44 probably earths the oil lamp at low oil pressure; 45 is probably a resistance that falls as the coolant warms.</text>
<text x="126" y="282.0" font-size="2.35" text-anchor="start" font-weight="normal" fill="#333">Diagram is not RHD-specific: circuits should match, but harness routing and part positions may differ.</text>
</svg>