<svg xmlns="http://www.w3.org/2000/svg" width="420mm" height="297mm" viewBox="0 0 420 297" font-family="Helvetica, Arial, sans-serif">
<rect width="420" height="297" fill="#fff"/><rect x="8" y="8" width="404" height="281" fill="none" stroke="#111" stroke-width=".6"/>
<text x="14" y="19" font-size="6" text-anchor="start" font-weight="bold" fill="#111">Saab 99 Turbo, model 1979 — Interior lights, seat heating, seat belt warning</text>
<text x="14" y="25.5" font-size="2.8" text-anchor="start" font-weight="normal" fill="#444">Redrawn from Saab Service Manual 1975–1980, diagram p. 371-28/29 (PDF p. 406–407). Component numbers as in the manual. Dashed = not traced yet.</text>
<text x="18" y="40" font-size="3.4" text-anchor="start" font-weight="bold" fill="#111">Seat heating</text>
<rect x="18" y="55" width="32" height="14" rx="1.2" fill="#fafafa" stroke="#111" stroke-width="0.8"/>
<text x="21" y="61" font-size="2.6" text-anchor="start" font-weight="normal" fill="#111"><tspan font-weight="bold">F5</tspan> · 8 A</text>
<text x="21" y="65.8" font-size="2.1" text-anchor="start" font-weight="normal" fill="#555">ignition-on bar</text>
<path d="M50,62 L118,62" fill="none" stroke="#222" stroke-width="1.7" stroke-linejoin="round"/>
<path d="M50,62 L118,62" fill="none" stroke="#f2c500" stroke-width="1.1" stroke-linejoin="round"/>
<rect x="57.4" y="57.5" width="17.400000000000002" height="3.8" fill="#fff" opacity=".85"/>
<text x="58" y="60.5" font-size="2.8" text-anchor="start" font-weight="normal" fill="#111">140 GL 1.0</text>
<rect x="118" y="58.0" width="4" height="8" fill="#ddd" stroke="#111" stroke-width=".5"/>
<text x="120" y="56.5" font-size="2.2" text-anchor="middle" font-weight="normal" fill="#555">58 (E12)</text>
<path d="M122,62 L178,62" fill="none" stroke="#222" stroke-width="1.7" stroke-linejoin="round"/>
<path d="M122,62 L178,62" fill="none" stroke="#f2c500" stroke-width="1.1" stroke-linejoin="round"/>
<rect x="178" y="58.0" width="4" height="8" fill="#ddd" stroke="#111" stroke-width=".5"/>
<text x="180" y="56.5" font-size="2.2" text-anchor="middle" font-weight="normal" fill="#555">59</text>
<path d="M182,62 H196" stroke="#111" stroke-width=".6"/>
<rect x="196" y="55" width="44" height="14" rx="1.2" fill="#fafafa" stroke="#111" stroke-width="0.8"/>
<path d="M200,62 l3,-4 l3,8 l3,-8 l3,8 l3,-8 l3,8 l3,-8 l3,8 l2,-4" fill="none" stroke="#111" stroke-width=".45"/>
<path d="M230,65 l6,-5" stroke="#111" stroke-width=".5"/>
<text x="218" y="75" font-size="2.5" text-anchor="middle" font-weight="bold" fill="#111">64 Seat heating element with thermostat (A6)</text>
<path d="M240,62 L250,62 L250,66" fill="none" stroke="#222" stroke-width="1.7" stroke-linejoin="round"/>
<path d="M240,62 L250,62 L250,66" fill="none" stroke="#111111" stroke-width="1.1" stroke-linejoin="round"/>
<path d="M250,66 v3 M247,69 h6 M248,70.3 h4 M249,71.6 h2" stroke="#111" stroke-width=".5" fill="none"/>
<text x="254" y="69" font-size="2.2" text-anchor="start" font-weight="normal" fill="#111">141 SV 1.0</text>
<path d="M180,66 L180,86 L196,86" fill="none" stroke="#222" stroke-width="1.7" stroke-linejoin="round"/>
<path d="M180,66 L180,86 L196,86" fill="none" stroke="#f2c500" stroke-width="1.1" stroke-linejoin="round"/>
<rect x="198" y="83.4" width="81.41600000000001" height="5.2" rx="1" fill="#fff" stroke="#444" stroke-width=".4"/>
<text x="199.5" y="87" font-size="2.6" text-anchor="start" font-weight="normal" fill="#111">150 GL 0.75 via connector 60 → seat belt contacts (59, A8)</text>
<text x="18" y="108" font-size="3.4" text-anchor="start" font-weight="bold" fill="#111">Interior lights</text>
<text x="18" y="114" font-size="2.4" text-anchor="start" font-weight="normal" fill="#555">Fuse 9’s 160 GL feeds 52, then 161 GL through 57 to 50 and (163 GL) 55; 164 BL, 167 SV reach 50; 162/165 SV link 50–51; doors 170/171 SV.</text>
<circle cx="22" cy="125" r="3.2" fill="#fff" stroke="#111" stroke-width=".6"/>
<path d="M19.76,122.76 L24.24,127.24 M19.76,127.24 L24.24,122.76" stroke="#111" stroke-width=".45"/>
<text x="30" y="126" font-size="2.7" text-anchor="start" font-weight="normal" fill="#111"><tspan font-weight="bold">50</tspan> Dome light, door pillar (A10)</text>
<text x="30" y="130.6" font-size="2.3" text-anchor="start" font-weight="normal" fill="#555">164 BL 0.75, 167 SV 0.75</text>
<circle cx="212" cy="125" r="3.2" fill="#fff" stroke="#111" stroke-width=".6"/>
<path d="M209.76,122.76 L214.24,127.24 M209.76,127.24 L214.24,122.76" stroke="#111" stroke-width=".45"/>
<text x="220" y="126" font-size="2.7" text-anchor="start" font-weight="normal" fill="#111"><tspan font-weight="bold">51</tspan> Dome light, rear-view mirror (A10)</text>
<text x="220" y="130.6" font-size="2.3" text-anchor="start" font-weight="normal" fill="#555">162 SV 0.75, 165 SV 0.75</text>
<circle cx="22" cy="139" r="3.2" fill="#fff" stroke="#111" stroke-width=".6"/>
<path d="M19.76,136.76 L24.24,141.24 M19.76,141.24 L24.24,136.76" stroke="#111" stroke-width=".45"/>
<text x="30" y="140" font-size="2.7" text-anchor="start" font-weight="normal" fill="#111"><tspan font-weight="bold">52</tspan> Ignition switch light (A9)</text>
<text x="30" y="144.6" font-size="2.3" text-anchor="start" font-weight="normal" fill="#555">161 GL 0.75, 164 BL 0.75, via connector 57</text>
<path d="M208,141 l6,-4 M214,139 h3" stroke="#111" stroke-width=".6"/>
<text x="220" y="140" font-size="2.7" text-anchor="start" font-weight="normal" fill="#111"><tspan font-weight="bold">53</tspan> Interior lighting switch (A9)</text>
<text x="220" y="144.6" font-size="2.3" text-anchor="start" font-weight="normal" fill="#555">167a SV 0.75 via connector 60, 169 SV 0.75</text>
<path d="M18,155 l6,-4 M24,153 h3" stroke="#111" stroke-width=".6"/>
<text x="30" y="154" font-size="2.7" text-anchor="start" font-weight="normal" fill="#111"><tspan font-weight="bold">54</tspan> Door switch (A9, A11, B11)</text>
<text x="30" y="158.6" font-size="2.3" text-anchor="start" font-weight="normal" fill="#555">170 SV 0.75</text>
<circle cx="212" cy="153" r="3.2" fill="#fff" stroke="#111" stroke-width=".6"/>
<path d="M209.76,150.76 L214.24,155.24 M209.76,155.24 L214.24,150.76" stroke="#111" stroke-width=".45"/>
<text x="220" y="154" font-size="2.7" text-anchor="start" font-weight="normal" fill="#111"><tspan font-weight="bold">55</tspan> Luggage compartment light (A10)</text>
<text x="220" y="158.6" font-size="2.3" text-anchor="start" font-weight="normal" fill="#555">163 GL 0.75, 166 BL 0.75 to switch 56</text>
<path d="M18,169 l6,-4 M24,167 h3" stroke="#111" stroke-width=".6"/>
<text x="30" y="168" font-size="2.7" text-anchor="start" font-weight="normal" fill="#111"><tspan font-weight="bold">56</tspan> Luggage compartment light switch (A10)</text>
<text x="30" y="172.6" font-size="2.3" text-anchor="start" font-weight="normal" fill="#555">166 BL 0.75, earth</text>
<text x="18" y="188" font-size="2.4" text-anchor="start" font-weight="normal" fill="#111">57 3-pole connector (A10): pins carry 161 GL, 164 BL, and 167a SV (switch side) to 167 SV (lamp side). + is 160 GL from fuse 9.</text>
<text x="18" y="206" font-size="3.4" text-anchor="start" font-weight="bold" fill="#111">Seat belt warning</text>
<text x="18" y="212" font-size="2.3" text-anchor="start" font-weight="normal" fill="#555">Fuse 5’s 150 GL reaches the seat and belt contacts; through them, 156 BR and 151 BR feed lamp 72, which returns on 157 SV (probably).</text>
<path d="M18,223 l6,-4 M24,221 h3" stroke="#111" stroke-width=".6"/>
<text x="30" y="222" font-size="2.7" text-anchor="start" font-weight="normal" fill="#111"><tspan font-weight="bold">69</tspan> Seat contact (A8)</text>
<text x="30" y="226.6" font-size="2.3" text-anchor="start" font-weight="normal" fill="#555">via 59 (A8); contact wiring too cramped to read</text>
<path d="M208,223 l6,-4 M214,221 h3" stroke="#111" stroke-width=".6"/>
<text x="220" y="222" font-size="2.7" text-anchor="start" font-weight="normal" fill="#111"><tspan font-weight="bold">70/71</tspan> Seat belt contacts L/R (A8)</text>
<text x="220" y="226.6" font-size="2.3" text-anchor="start" font-weight="normal" fill="#555">via 59 (A8); 168 SV 0.75 to earth</text>
<circle cx="22" cy="233" r="3.2" fill="#fff" stroke="#111" stroke-width=".6"/>
<path d="M19.76,230.76 L24.24,235.24 M19.76,235.24 L24.24,230.76" stroke="#111" stroke-width=".45"/>
<text x="30" y="234" font-size="2.7" text-anchor="start" font-weight="normal" fill="#111"><tspan font-weight="bold">72</tspan> Seat belt warning lamp (D12)</text>
<text x="30" y="238.6" font-size="2.3" text-anchor="start" font-weight="normal" fill="#555">151 BR 0.75 in, 157 SV 0.75 to earth, via 59 (C12)</text>
<rect x="18" y="250" width="389" height="37" rx="1.2" fill="#fff" stroke="#111" stroke-width="0.5"/>
<path d="M22,255 h7" stroke="#222" stroke-width="1.7"/><path d="M22,255 h7" stroke="#1f5fbf" stroke-width="1.1"/>
<text x="31" y="256" font-size="2.5" text-anchor="start" font-weight="normal" fill="#111">BL Blue</text>
<path d="M45,255 h7" stroke="#222" stroke-width="1.7"/><path d="M45,255 h7" stroke="#7a4a1c" stroke-width="1.1"/>
<text x="54" y="256" font-size="2.5" text-anchor="start" font-weight="normal" fill="#111">BR Brown</text>
<path d="M68,255 h7" stroke="#222" stroke-width="1.7"/><path d="M68,255 h7" stroke="#f2c500" stroke-width="1.1"/>
<text x="77" y="256" font-size="2.5" text-anchor="start" font-weight="normal" fill="#111">GL Yellow</text>
<path d="M91,255 h7" stroke="#222" stroke-width="1.7"/><path d="M91,255 h7" stroke="#1e9e3e" stroke-width="1.1"/>
<text x="100" y="256" font-size="2.5" text-anchor="start" font-weight="normal" fill="#111">GN Green</text>
<path d="M22,260 h7" stroke="#222" stroke-width="1.7"/><path d="M22,260 h7" stroke="#8a8a8a" stroke-width="1.1"/>
<text x="31" y="261" font-size="2.5" text-anchor="start" font-weight="normal" fill="#111">GR Grey</text>
<path d="M45,260 h7" stroke="#222" stroke-width="1.7"/><path d="M45,260 h7" stroke="#d42020" stroke-width="1.1"/>
<text x="54" y="261" font-size="2.5" text-anchor="start" font-weight="normal" fill="#111">RD Red</text>
<path d="M68,260 h7" stroke="#222" stroke-width="1.7"/><path d="M68,260 h7" stroke="#111111" stroke-width="1.1"/>
<text x="77" y="261" font-size="2.5" text-anchor="start" font-weight="normal" fill="#111">SV Black</text>
<path d="M91,260 h7" stroke="#222" stroke-width="1.7"/><path d="M91,260 h7" stroke="#ffffff" stroke-width="1.1"/>
<text x="100" y="261" font-size="2.5" text-anchor="start" font-weight="normal" fill="#111">VT White</text>
<path d="M22,267 h9" stroke="#222" stroke-width="1.2"/>
<text x="33" y="268" font-size="2.4" text-anchor="start" font-weight="normal" fill="#111">traced (cable no. read)</text>
<path d="M22,272.2 l0.9,1.0 l1.9,-2.4" fill="none" stroke="#1e7a3a" stroke-width="0.55" stroke-linecap="round" stroke-linejoin="round"/>
<text x="26" y="274" font-size="2.4" text-anchor="start" font-weight="normal" fill="#111">checked on the car</text>
<text x="126" y="256.0" font-size="2.35" text-anchor="start" font-weight="normal" fill="#333">Seat heating: fuse 5 (ignition-on bar) feeds 140 GL 1.0 through connector 58 at E12, which the manual draws as an optional pin,</text>
<text x="126" y="261.8" font-size="2.35" text-anchor="start" font-weight="normal" fill="#333">and connector 59 to the heating element; its return is 141 SV 1.0. This resolves one of fuse 5’s open wires.</text>
<text x="126" y="267.6" font-size="2.35" text-anchor="start" font-weight="normal" fill="#333">Interior lights and seat belt warning are listed as references only: the checks on the car (docs/car-checklist.md) will fill them in.</text>
<text x="126" y="273.4" font-size="2.35" text-anchor="start" font-weight="normal" fill="#333">Fuse 5 also powers the Turbo’s high-speed fuel boost (speed transmitter 140 and throttle switch 137): see the ignition sheet.</text>
<text x="126" y="279.2" font-size="2.35" text-anchor="start" font-weight="normal" fill="#333">Diagram is not RHD-specific: circuits should match, but harness routing and part positions may differ.</text>
</svg>