<svg xmlns="http://www.w3.org/2000/svg" width="420mm" height="297mm" viewBox="0 0 420 297" font-family="Helvetica, Arial, sans-serif">
<rect width="420" height="297" fill="#fff"/><rect x="8" y="8" width="404" height="281" fill="none" stroke="#111" stroke-width=".6"/>
<text x="14" y="19" font-size="6" text-anchor="start" font-weight="bold" fill="#111">Saab 99 Turbo, model 1979 — Wipers and washers</text>
<text x="14" y="25.5" font-size="2.8" text-anchor="start" font-weight="normal" fill="#444">Redrawn from Saab Service Manual 1975–1980, diagram p. 371-28/29 (PDF p. 406–407). Component numbers as in the manual.</text>
<text x="18" y="40" font-size="3.4" text-anchor="start" font-weight="bold" fill="#111">Windscreen wipers and washer</text>
<rect x="18" y="86" width="36" height="20" rx="1.2" fill="#fafafa" stroke="#111" stroke-width="0.8"/>
<text x="21" y="91" font-size="2.6" text-anchor="start" font-weight="normal" fill="#111"><tspan font-weight="bold">F4</tspan> · 8 A</text>
<path d="M24,93.5 L24,103.5" fill="none" stroke="#111" stroke-width=".4"/>
<circle cx="24" cy="96" r=".8" fill="#fff" stroke="#111" stroke-width=".35"/>
<text x="26" y="103" font-size="2.1" text-anchor="start" font-weight="normal" fill="#555">ignition-on bar</text>
<rect x="32" y="94.8" width="10" height="2.4" fill="#fff" stroke="#111" stroke-width=".4"/><path d="M32,96 L42,96" stroke="#111" stroke-width=".35"/>
<path d="M24.8,96 L32,96" fill="none" stroke="#111" stroke-width=".4"/>
<path d="M42,96 L54,96" fill="none" stroke="#111" stroke-width=".4"/>
<text x="52.5" y="94.6" font-size="1.8" text-anchor="end" font-weight="normal" fill="#555">4</text>
<circle cx="54" cy="96" r="1.0" fill="#111"/>
<path d="M54,96 L57,93 L57,88 L61,88" fill="none" stroke="#222" stroke-width="1.7" stroke-linejoin="round"/>
<path d="M54,96 L57,93 L57,88 L61,88" fill="none" stroke="#7a4a1c" stroke-width="1.1" stroke-linejoin="round"/>
<rect x="61" y="85.4" width="42.936" height="5.2" rx="1" fill="#fff" stroke="#444" stroke-width=".4"/>
<text x="62.5" y="89" font-size="2.4" text-anchor="start" font-weight="normal" fill="#111">85a BR 0.75 <tspan font-family="Arial">→</tspan> wiper motor 62 (4)</text>
<path d="M54,96 L57,99 L57,104 L61,104" fill="none" stroke="#222" stroke-width="1.7" stroke-linejoin="round"/>
<path d="M54,96 L57,99 L57,104 L61,104" fill="none" stroke="#7a4a1c" stroke-width="1.1" stroke-linejoin="round"/>
<rect x="61" y="101.4" width="41.687999999999995" height="5.2" rx="1" fill="#fff" stroke="#444" stroke-width=".4"/>
<text x="62.5" y="105" font-size="2.4" text-anchor="start" font-weight="normal" fill="#111">85a BR 0.75 <tspan font-family="Arial">→</tspan> interval relay 83</text>
<path d="M54,96 L158,96 L158,91" fill="none" stroke="#222" stroke-width="1.7" stroke-linejoin="round"/>
<path d="M54,96 L158,96 L158,91" fill="none" stroke="#7a4a1c" stroke-width="1.1" stroke-linejoin="round"/>
<rect x="63.4" y="91.5" width="15.780000000000001" height="3.8" fill="#fff" opacity=".85"/>
<text x="64" y="94.5" font-size="2.8" text-anchor="start" font-weight="normal" fill="#111">85 BR 1.0</text>
<circle cx="54" cy="96" r="1.0" fill="#111"/>
<rect x="112" y="45" width="72" height="46" rx="1.2" fill="#fafafa" stroke="#111" stroke-width="0.8"/>
<text x="146" y="42.6" font-size="2.7" text-anchor="middle" font-weight="bold" fill="#111">61 Wiper switch</text>
<text x="158.5" y="42.6" font-size="2.2" text-anchor="start" font-weight="normal" fill="#555">(D9)</text>
<path d="M120.8,74.9 L149.96,64.62 L173,56.5" fill="none" stroke="#999" stroke-width=".3" stroke-dasharray=".8 .6"/>
<path d="M118.98,65.47 L149.96,64.62 L172.6,64" fill="none" stroke="#999" stroke-width=".3" stroke-dasharray=".8 .6"/>
<path d="M119.99,56.72 L149.96,64.62 L173.6,70.85" fill="none" stroke="#999" stroke-width=".3" stroke-dasharray=".8 .6"/>
<circle cx="121" cy="91" r="1.0" fill="#111"/>
<circle cx="129" cy="91" r="1.0" fill="#111"/>
<circle cx="136" cy="91" r="1.0" fill="#111"/>
<circle cx="158" cy="91" r="1.0" fill="#111"/>
<text x="119.6" y="89.4" font-size="1.8" text-anchor="end" font-weight="normal" fill="#888">31b</text>
<text x="127.6" y="89.4" font-size="1.8" text-anchor="end" font-weight="normal" fill="#555">S</text>
<text x="138.3" y="89.8" font-size="1.8" text-anchor="start" font-weight="normal" fill="#888">54c</text>
<circle cx="184" cy="56.5" r="1.0" fill="#111"/>
<path d="M184,56.5 L178.5,56.5" fill="none" stroke="#111" stroke-width=".4"/>
<circle cx="177.7" cy="56.5" r=".8" fill="#fff" stroke="#111" stroke-width=".35"/>
<text x="182.6" y="55.2" font-size="1.8" text-anchor="end" font-weight="normal" fill="#888">INT</text>
<circle cx="184" cy="64" r="1.0" fill="#111"/>
<path d="M184,64 L178.5,64" fill="none" stroke="#111" stroke-width=".4"/>
<circle cx="177.7" cy="64" r=".8" fill="#fff" stroke="#111" stroke-width=".35"/>
<text x="182.6" y="62.7" font-size="1.8" text-anchor="end" font-weight="normal" fill="#888">53</text>
<circle cx="184" cy="72" r="1.0" fill="#111"/>
<path d="M184,72 L178.5,72" fill="none" stroke="#111" stroke-width=".4"/>
<circle cx="177.7" cy="72" r=".8" fill="#fff" stroke="#111" stroke-width=".35"/>
<text x="182.6" y="70.7" font-size="1.8" text-anchor="end" font-weight="normal" fill="#888">53b</text>
<path d="M176.9,56.5 L173,56.5" fill="none" stroke="#111" stroke-width=".4"/>
<path d="M176.9,64 L172.6,64" fill="none" stroke="#111" stroke-width=".4"/>
<path d="M177,71.8 L173.6,70.9" fill="none" stroke="#111" stroke-width=".4"/>
<circle cx="123.7" cy="83" r=".8" fill="#fff" stroke="#111" stroke-width=".35"/>
<path d="M121,91 L123.45,83.76" fill="none" stroke="#111" stroke-width=".4"/>
<circle cx="120.8" cy="74.9" r=".8" fill="#fff" stroke="#111" stroke-width=".35"/>
<path d="M123.43,82.25 L121.07,75.65" fill="none" stroke="#111" stroke-width=".4"/>
<path d="M124.27,82.6 L171.5,49.55" stroke="#111" stroke-width=".75" stroke-linecap="round"/>
<path d="M142.34,69.95 L147.12,66.61" stroke="#fff" stroke-width=".22" stroke-linecap="round"/>
<path d="M151.19,63.77 L157.4,59.42" stroke="#fff" stroke-width=".22" stroke-linecap="round"/>
<circle cx="149.96" cy="64.62" r=".9" fill="#111"/><circle cx="149.96" cy="64.62" r=".3" fill="#fff"/>
<circle cx="133.8" cy="70.3" r=".8" fill="#fff" stroke="#111" stroke-width=".35"/>
<path d="M133.8,75.6 L133.8,71.2" stroke="#111" stroke-width=".75" stroke-linecap="round"/>
<path d="M133.8,69.5 L133.8,47.5 L178.4,47.5 L178.4,49.5 L169.5,56.7 L169.5,63.2" fill="none" stroke="#111" stroke-width=".4"/>
<circle cx="169.5" cy="64" r=".8" fill="#fff" stroke="#111" stroke-width=".35"/>
<path d="M170.3,64 L172.6,64" fill="none" stroke="#888" stroke-width=".4"/>
<path d="M163.6,60.9 L163.6,79.7" fill="none" stroke="#111" stroke-width=".4"/>
<circle cx="163.6" cy="60.1" r=".8" fill="#fff" stroke="#111" stroke-width=".35"/>
<circle cx="163.6" cy="64" r=".8" fill="#fff" stroke="#111" stroke-width=".35"/>
<circle cx="163.6" cy="68.21" r=".8" fill="#fff" stroke="#111" stroke-width=".35"/>
<circle cx="163.6" cy="80.5" r=".8" fill="#fff" stroke="#111" stroke-width=".35"/>
<text x="165.3" y="81.2" font-size="1.8" text-anchor="start" font-weight="normal" fill="#555">53a</text>
<path d="M163.6,81.3 L163.6,85.3 L158,91" fill="none" stroke="#111" stroke-width=".4"/>
<path d="M160,66.47 L160,64.35" fill="none" stroke="#111" stroke-width=".4"/>
<path d="M159.1,64.35 H160.9" stroke="#111" stroke-width=".45"/>
<circle cx="160" cy="67.27" r=".8" fill="#fff" stroke="#111" stroke-width=".35"/>
<path d="M159.41,67.81 L147.2,78.8 L147.2,80.9" fill="none" stroke="#111" stroke-width=".4"/>
<path d="M129,91 L138.2,78.8 L147.2,78.8" fill="none" stroke="#111" stroke-width=".4"/>
<circle cx="147.2" cy="78.8" r=".55" fill="#111"/>
<circle cx="147.2" cy="81.7" r=".8" fill="#fff" stroke="#111" stroke-width=".35"/>
<circle cx="141.1" cy="81.7" r=".8" fill="#fff" stroke="#111" stroke-width=".35"/>
<path d="M141.9,81.7 L146.4,81.7" fill="none" stroke="#111" stroke-width=".4"/>
<path d="M140.7,82.4 L136,91" fill="none" stroke="#111" stroke-width=".4"/>
<path d="M162.9,80.75 L150.4,82.1" stroke="#111" stroke-width=".75" stroke-linecap="round"/>
<circle cx="120.3" cy="85.4" r="1.3" fill="#fff" stroke="#888" stroke-width=".25"/>
<text x="120.3" y="86.12" font-size="2" text-anchor="middle" font-weight="bold" fill="#777">0</text>
<circle cx="117.9" cy="75.9" r="1.3" fill="#fff" stroke="#888" stroke-width=".25"/>
<text x="117.9" y="76.62" font-size="2" text-anchor="middle" font-weight="bold" fill="#777">1</text>
<circle cx="116.2" cy="65.6" r="1.3" fill="#fff" stroke="#888" stroke-width=".25"/>
<text x="116.2" y="66.32" font-size="2" text-anchor="middle" font-weight="bold" fill="#777">2</text>
<circle cx="117.2" cy="56.0" r="1.3" fill="#fff" stroke="#888" stroke-width=".25"/>
<text x="117.2" y="56.72" font-size="2" text-anchor="middle" font-weight="bold" fill="#777">3</text>
<circle cx="153" cy="84.8" r="1.3" fill="#fff" stroke="#888" stroke-width=".25"/>
<text x="153" y="85.52" font-size="2" text-anchor="middle" font-weight="bold" fill="#777">4</text>
<text x="161.1" y="66.3" font-size="1.8" text-anchor="start" font-weight="normal" fill="#888">F</text>
<text x="139.9" y="82.4" font-size="1.8" text-anchor="end" font-weight="normal" fill="#888">P</text>
<text x="148.2" y="84.4" font-size="1.8" text-anchor="start" font-weight="normal" fill="#888">Q</text>
<text x="51" y="45.4" font-size="2.4" text-anchor="start" font-weight="bold" fill="#333">61 positions: terminals joined</text>
<text x="75.95" y="48.8" font-size="2.1" text-anchor="middle" font-weight="normal" fill="#333">31b</text>
<path d="M74.35000000000001,50.6 h3.2" stroke="#222" stroke-width="1.3"/><path d="M74.35000000000001,50.6 h3.2" stroke="#1f5fbf" stroke-width=".8"/>
<text x="80.85" y="48.8" font-size="2.1" text-anchor="middle" font-weight="normal" fill="#333">53</text>
<path d="M79.25,50.6 h3.2" stroke="#222" stroke-width="1.3"/><path d="M79.25,50.6 h3.2" stroke="#d42020" stroke-width=".8"/>
<text x="85.75" y="48.8" font-size="2.1" text-anchor="middle" font-weight="normal" fill="#333">53a</text>
<path d="M84.15,50.6 h3.2" stroke="#222" stroke-width="1.3"/><path d="M84.15,50.6 h3.2" stroke="#7a4a1c" stroke-width=".8"/>
<text x="90.65" y="48.8" font-size="2.1" text-anchor="middle" font-weight="normal" fill="#333">INT</text>
<path d="M89.05000000000001,50.6 h3.2" stroke="#222" stroke-width="1.3"/><path d="M89.05000000000001,50.6 h3.2" stroke="#1e9e3e" stroke-width=".8"/>
<path d="M89.05000000000001,50.6 h3.2" stroke="#ffffff" stroke-width=".4" stroke-dasharray=".8 .8"/>
<text x="95.55" y="48.8" font-size="2.1" text-anchor="middle" font-weight="normal" fill="#333">53b</text>
<path d="M93.95,50.6 h3.2" stroke="#222" stroke-width="1.3"/><path d="M93.95,50.6 h3.2" stroke="#1e9e3e" stroke-width=".8"/>
<text x="100.45" y="48.8" font-size="2.1" text-anchor="middle" font-weight="normal" fill="#333">S</text>
<path d="M98.85000000000001,50.6 h3.2" stroke="#222" stroke-width="1.3"/><path d="M98.85000000000001,50.6 h3.2" stroke="#8a8a8a" stroke-width=".8"/>
<text x="105.35" y="48.8" font-size="2.1" text-anchor="middle" font-weight="normal" fill="#333">54c</text>
<path d="M103.75,50.6 h3.2" stroke="#222" stroke-width="1.3"/><path d="M103.75,50.6 h3.2" stroke="#f2c500" stroke-width=".8"/>
<path d="M51,52.00 H107.80 M51,56.60 H107.80 M51,61.20 H107.80 M51,65.80 H107.80 M51,70.40 H107.80 M51,75.00 H107.80 M73.50,52.0 V75.00 M78.40,52.0 V75.00 M83.30,52.0 V75.00 M88.20,52.0 V75.00 M93.10,52.0 V75.00 M98.00,52.0 V75.00 M102.90,52.0 V75.00 M107.80,52.0 V75.00" stroke="#ccc" stroke-width=".2"/>
<circle cx="52.5" cy="54.3" r="1.3" fill="#fff" stroke="#888" stroke-width=".25"/>
<text x="52.5" y="55.019999999999996" font-size="2" text-anchor="middle" font-weight="bold" fill="#777">0</text>
<text x="54.6" y="55.05" font-size="2.1" text-anchor="start" font-weight="normal" fill="#333">off</text>
<path d="M75.95,54.3 H80.85" fill="none" stroke="#888" stroke-linejoin="round" stroke-width=".7"/>
<circle cx="75.95" cy="54.3" r=".85" fill="#888"/>
<circle cx="80.85" cy="54.3" r=".85" fill="#888"/>
<circle cx="52.5" cy="58.9" r="1.3" fill="#fff" stroke="#888" stroke-width=".25"/>
<text x="52.5" y="59.62" font-size="2" text-anchor="middle" font-weight="bold" fill="#777">1</text>
<text x="54.6" y="59.65" font-size="2.1" text-anchor="start" font-weight="normal" fill="#333">intermittent</text>
<path d="M75.95,58.9 H80.85" fill="none" stroke="#888" stroke-linejoin="round" stroke-width=".7"/>
<path d="M85.75,58.9 H90.65" fill="none" stroke="#111" stroke-linejoin="round" stroke-width=".7"/>
<circle cx="75.95" cy="58.9" r=".85" fill="#888"/>
<circle cx="80.85" cy="58.9" r=".85" fill="#888"/>
<circle cx="85.75" cy="58.9" r=".85" fill="#111"/>
<circle cx="90.65" cy="58.9" r=".85" fill="#111"/>
<circle cx="52.5" cy="63.5" r="1.3" fill="#fff" stroke="#888" stroke-width=".25"/>
<text x="52.5" y="64.22" font-size="2" text-anchor="middle" font-weight="bold" fill="#777">2</text>
<text x="54.6" y="64.25" font-size="2.1" text-anchor="start" font-weight="normal" fill="#333">slow</text>
<path d="M80.85,63.5 H85.75" fill="none" stroke="#111" stroke-linejoin="round" stroke-width=".7"/>
<path d="M85.75,63.5 H89.55 A1.1,1.1 0 0 1 91.75,63.5 H94.45 A1.1,1.1 0 0 1 96.65,63.5 H105.35" fill="none" stroke="#888" stroke-linejoin="round" stroke-dasharray=".05 .75" stroke-linecap="round" stroke-width=".55"/>
<circle cx="80.85" cy="63.5" r=".85" fill="#111"/>
<circle cx="85.75" cy="63.5" r=".85" fill="#111"/>
<circle cx="100.45" cy="63.5" r="1" fill="#fff"/>
<text x="100.45" y="64.25" font-size="2.1" text-anchor="middle" font-weight="bold" fill="#888">?</text>
<circle cx="105.35" cy="63.5" r="1" fill="#fff"/>
<text x="105.35" y="64.25" font-size="2.1" text-anchor="middle" font-weight="bold" fill="#888">?</text>
<circle cx="52.5" cy="68.1" r="1.3" fill="#fff" stroke="#888" stroke-width=".25"/>
<text x="52.5" y="68.82" font-size="2" text-anchor="middle" font-weight="bold" fill="#777">3</text>
<text x="54.6" y="68.85" font-size="2.1" text-anchor="start" font-weight="normal" fill="#333">fast</text>
<path d="M85.75,68.1 H89.55 A1.1,1.1 0 0 1 91.75,68.1 H95.55" fill="none" stroke="#111" stroke-linejoin="round" stroke-width=".7"/>
<path d="M95.55,68.1 H100.45" fill="none" stroke="#888" stroke-linejoin="round" stroke-width=".7"/>
<path d="M100.45,68.1 H105.35" fill="none" stroke="#888" stroke-linejoin="round" stroke-dasharray=".05 .75" stroke-linecap="round" stroke-width=".55"/>
<circle cx="85.75" cy="68.1" r=".85" fill="#111"/>
<circle cx="95.55" cy="68.1" r=".85" fill="#111"/>
<circle cx="100.45" cy="68.1" r=".85" fill="#888"/>
<circle cx="105.35" cy="68.1" r="1" fill="#fff"/>
<text x="105.35" y="68.85" font-size="2.1" text-anchor="middle" font-weight="bold" fill="#888">?</text>
<circle cx="52.5" cy="72.7" r="1.3" fill="#fff" stroke="#888" stroke-width=".25"/>
<text x="52.5" y="73.42" font-size="2" text-anchor="middle" font-weight="bold" fill="#777">4</text>
<text x="54.6" y="73.45" font-size="2.1" text-anchor="start" font-weight="normal" fill="#333">washer (pull from 0)</text>
<path d="M75.95,72.7 H80.85" fill="none" stroke="#888" stroke-linejoin="round" stroke-width=".7"/>
<path d="M85.75,72.7 H89.55 A1.1,1.1 0 0 1 91.75,72.7 H94.45 A1.1,1.1 0 0 1 96.65,72.7 H105.35" fill="none" stroke="#888" stroke-linejoin="round" stroke-width=".7"/>
<circle cx="75.95" cy="72.7" r=".85" fill="#888"/>
<circle cx="80.85" cy="72.7" r=".85" fill="#888"/>
<circle cx="85.75" cy="72.7" r=".85" fill="#888"/>
<circle cx="100.45" cy="72.7" r=".85" fill="#888"/>
<circle cx="105.35" cy="72.7" r=".85" fill="#888"/>
<circle cx="52" cy="77.2" r=".85" fill="#111"/>
<text x="53.5" y="77.9" font-size="2" text-anchor="start" font-weight="normal" fill="#333">read</text>
<circle cx="61" cy="77.2" r=".85" fill="#888"/>
<text x="62.5" y="77.9" font-size="2" text-anchor="start" font-weight="normal" fill="#333">probably</text>
<path d="M74,77.2 h3.5" stroke="#888" stroke-width=".55" stroke-dasharray=".05 .75" stroke-linecap="round"/>
<text x="78.3" y="77.9" font-size="2" text-anchor="start" font-weight="normal" fill="#333">unsure</text>
<path d="M88,77.2 H89.1 A1.1,1.1 0 0 1 91.3,77.2 H92.4" fill="none" stroke="#111" stroke-width=".7" stroke-linejoin="round"/>
<text x="93.4" y="77.9" font-size="2" text-anchor="start" font-weight="normal" fill="#333">hop: not joined</text>
<text x="51" y="80.7" font-size="2" text-anchor="start" font-weight="normal" fill="#333">?: at 2, S only if F’s flat top (printed on line 2) is a contact;</text>
<text x="51" y="83.5" font-size="2" text-anchor="start" font-weight="normal" fill="#333">54c at 2 and 3 only through P–Q (probably a misprint).</text>
<path d="M184,64 L392,64 L392,95 L370,95" fill="none" stroke="#222" stroke-width="1.7" stroke-linejoin="round"/>
<path d="M184,64 L392,64 L392,95 L370,95" fill="none" stroke="#d42020" stroke-width="1.1" stroke-linejoin="round"/>
<rect x="205.4" y="59.5" width="15.780000000000001" height="3.8" fill="#fff" opacity=".85"/>
<text x="206" y="62.5" font-size="2.8" text-anchor="start" font-weight="normal" fill="#111">86 RD 1.0</text>
<path d="M184,72 L386,72 L386,89 L370,89" fill="none" stroke="#222" stroke-width="1.7" stroke-linejoin="round"/>
<path d="M184,72 L386,72 L386,89 L370,89" fill="none" stroke="#1e9e3e" stroke-width="1.1" stroke-linejoin="round"/>
<rect x="205.4" y="67.5" width="15.780000000000001" height="3.8" fill="#fff" opacity=".85"/>
<text x="206" y="70.5" font-size="2.8" text-anchor="start" font-weight="normal" fill="#111">87 GN 1.0</text>
<path d="M184,56.5 L196,56.5 L196,130 L230,130" fill="none" stroke="#222" stroke-width="1.7" stroke-linejoin="round"/>
<path d="M184,56.5 L196,56.5 L196,130 L230,130" fill="none" stroke="#1e9e3e" stroke-width="1.1" stroke-linejoin="round"/>
<path d="M184,56.5 L196,56.5 L196,130 L230,130" fill="none" stroke="#ffffff" stroke-width="0.5" stroke-dasharray="1.2 1.2"/>
<rect x="199.4" y="125.5" width="22.26" height="3.8" fill="#fff" opacity=".85"/>
<text x="200" y="128.5" font-size="2.8" text-anchor="start" font-weight="normal" fill="#111">84 GN/VT 0.75</text>
<path d="M121,91 L121,142 L230,142" fill="none" stroke="#222" stroke-width="1.7" stroke-linejoin="round"/>
<path d="M121,91 L121,142 L230,142" fill="none" stroke="#1f5fbf" stroke-width="1.1" stroke-linejoin="round"/>
<rect x="199.4" y="137.5" width="17.400000000000002" height="3.8" fill="#fff" opacity=".85"/>
<text x="200" y="140.5" font-size="2.8" text-anchor="start" font-weight="normal" fill="#111">88 BL 0.75</text>
<path d="M136,91 L136,154 L230,154" fill="none" stroke="#222" stroke-width="1.7" stroke-linejoin="round"/>
<path d="M136,91 L136,154 L230,154" fill="none" stroke="#f2c500" stroke-width="1.1" stroke-linejoin="round"/>
<rect x="199.4" y="149.5" width="17.400000000000002" height="3.8" fill="#fff" opacity=".85"/>
<text x="200" y="152.5" font-size="2.8" text-anchor="start" font-weight="normal" fill="#111">91 GL 0.75</text>
<path d="M129,91 L129,104 L140,104" fill="none" stroke="#222" stroke-width="1.7" stroke-linejoin="round"/>
<path d="M129,91 L129,104 L140,104" fill="none" stroke="#8a8a8a" stroke-width="1.1" stroke-linejoin="round"/>
<rect x="140" y="101.4" width="39.3" height="5.2" rx="1" fill="#fff" stroke="#444" stroke-width=".4"/>
<text x="141.5" y="105" font-size="2.4" text-anchor="start" font-weight="normal" fill="#111">96 GR 0.75 <tspan font-family="Arial">→</tspan> relay 67:86 (below)</text>
<rect x="230" y="120" width="42" height="50" rx="1.2" fill="#fafafa" stroke="#111" stroke-width="0.8"/>
<text x="251" y="162" font-size="2.7" text-anchor="middle" font-weight="bold" fill="#111">83 Interval</text>
<text x="251" y="166" font-size="2.7" text-anchor="middle" font-weight="bold" fill="#111">relay (D8)</text>
<circle cx="230" cy="130" r="1.0" fill="#111"/>
<circle cx="230" cy="142" r="1.0" fill="#111"/>
<circle cx="230" cy="154" r="1.0" fill="#111"/>
<circle cx="251" cy="120" r="1.0" fill="#111"/>
<text x="253" y="124" font-size="2.2" text-anchor="start" font-weight="normal" fill="#111">85a</text>
<path d="M251,120 L251,112" fill="none" stroke="#222" stroke-width="1.7" stroke-linejoin="round"/>
<path d="M251,120 L251,112" fill="none" stroke="#7a4a1c" stroke-width="1.1" stroke-linejoin="round"/>
<rect x="218.96" y="109.4" width="30.04" height="5.2" rx="1" fill="#fff" stroke="#444" stroke-width=".4"/>
<text x="220.46" y="113" font-size="2.6" text-anchor="start" font-weight="normal" fill="#111">85a BR 0.75 <tspan font-family="Arial">←</tspan> fuse 4</text>
<circle cx="272" cy="130" r="1.0" fill="#111"/>
<circle cx="272" cy="154" r="1.0" fill="#111"/>
<path d="M272,130 L382,130 L382,107 L370,107" fill="none" stroke="#222" stroke-width="1.7" stroke-linejoin="round"/>
<path d="M272,130 L382,130 L382,107 L370,107" fill="none" stroke="#1f5fbf" stroke-width="1.1" stroke-linejoin="round"/>
<path d="M272,130 L382,130 L382,107 L370,107" fill="none" stroke="#ffffff" stroke-width="0.5" stroke-dasharray="1.2 1.2"/>
<rect x="289.4" y="125.5" width="23.88" height="3.8" fill="#fff" opacity=".85"/>
<text x="290" y="128.5" font-size="2.8" text-anchor="start" font-weight="normal" fill="#111">88a BL/VT 0.75</text>
<path d="M272,154 L320,154" fill="none" stroke="#222" stroke-width="1.7" stroke-linejoin="round"/>
<path d="M272,154 L320,154" fill="none" stroke="#f2c500" stroke-width="1.1" stroke-linejoin="round"/>
<rect x="279.4" y="149.5" width="19.02" height="3.8" fill="#fff" opacity=".85"/>
<text x="280" y="152.5" font-size="2.8" text-anchor="start" font-weight="normal" fill="#111">91a GL 0.75</text>
<circle cx="320" cy="154" r="1.0" fill="#111"/>
<path d="M320,154 L323.4,154" fill="none" stroke="#111" stroke-width=".4"/>
<path d="M251,170 L251,180 L255,180" fill="none" stroke="#222" stroke-width="1.7" stroke-linejoin="round"/>
<path d="M251,170 L251,180 L255,180" fill="none" stroke="#111111" stroke-width="1.1" stroke-linejoin="round"/>
<circle cx="251" cy="170" r="1.0" fill="#111"/>
<rect x="255" y="177.4" width="50.4" height="5.2" rx="1" fill="#fff" stroke="#444" stroke-width=".4"/>
<text x="256.5" y="181" font-size="2.4" text-anchor="start" font-weight="normal" fill="#111">83 SV 0.75 <tspan font-family="Arial">→</tspan> earth joint 158 (power sheet)</text>
<circle cx="327" cy="160" r="7" fill="#fff" stroke="#111" stroke-width=".7"/>
<text x="327" y="161.2" font-size="3" text-anchor="middle" font-weight="bold" fill="#111">M</text>
<text x="337" y="158" font-size="2.7" text-anchor="start" font-weight="bold" fill="#111">63 Washer pump</text>
<text x="337" y="162.5" font-size="2.2" text-anchor="start" font-weight="normal" fill="#555">(F4)</text>
<path d="M327,167 L327,169" fill="none" stroke="#111" stroke-width=".4"/>
<path d="M327,169 L327,177 L331,177" fill="none" stroke="#222" stroke-width="1.7" stroke-linejoin="round"/>
<path d="M327,169 L327,177 L331,177" fill="none" stroke="#111111" stroke-width="1.1" stroke-linejoin="round"/>
<rect x="331" y="174.4" width="49.3" height="5.2" rx="1" fill="#fff" stroke="#444" stroke-width=".4"/>
<text x="332.5" y="178" font-size="2.4" text-anchor="start" font-weight="normal" fill="#111">92 SV 1.0 <tspan font-family="Arial">→</tspan> earth joint 158 (power sheet)</text>
<path d="M327,169 L334,169" fill="none" stroke="#222" stroke-width="1.7" stroke-linejoin="round"/>
<path d="M327,169 L334,169" fill="none" stroke="#111111" stroke-width="1.1" stroke-linejoin="round"/>
<rect x="334" y="166.4" width="63.6" height="5.2" rx="1" fill="#fff" stroke="#444" stroke-width=".4"/>
<text x="335.5" y="170" font-size="2.4" text-anchor="start" font-weight="normal" fill="#111">361 SV 1.0 <tspan font-family="Arial">←</tspan> right front lamp housing (lighting sheet)</text>
<circle cx="327" cy="169" r="1.0" fill="#111"/>
<rect x="330" y="84" width="40" height="30" rx="1.2" fill="#fafafa" stroke="#111" stroke-width="0.8"/>
<circle cx="342" cy="99" r="6" fill="#fff" stroke="#111" stroke-width=".7"/>
<text x="342" y="100.2" font-size="3" text-anchor="middle" font-weight="bold" fill="#111">M</text>
<text x="350" y="80.5" font-size="2.7" text-anchor="middle" font-weight="bold" fill="#111">62 Wiper motor (F4)</text>
<circle cx="370" cy="89" r="1.0" fill="#111"/>
<text x="368" y="90" font-size="2.2" text-anchor="end" font-weight="normal" fill="#111">3</text>
<circle cx="370" cy="95" r="1.0" fill="#111"/>
<text x="368" y="96" font-size="2.2" text-anchor="end" font-weight="normal" fill="#111">5</text>
<circle cx="370" cy="101" r="1.0" fill="#111"/>
<text x="368" y="102" font-size="2.2" text-anchor="end" font-weight="normal" fill="#111">4</text>
<circle cx="370" cy="107" r="1.0" fill="#111"/>
<text x="368" y="108" font-size="2.2" text-anchor="end" font-weight="normal" fill="#111">2</text>
<circle cx="350" cy="114" r="1.0" fill="#111"/>
<text x="352" y="112.5" font-size="2.2" text-anchor="start" font-weight="normal" fill="#111">1</text>
<path d="M350,114 L350,119 L370,119 L370,114" fill="none" stroke="#222" stroke-width="1.7" stroke-linejoin="round"/>
<path d="M350,114 L350,119 L370,119 L370,114" fill="none" stroke="#111111" stroke-width="1.1" stroke-linejoin="round"/>
<text x="351.5" y="123.2" font-size="2.2" text-anchor="start" font-weight="normal" fill="#111">89 SV 0.75</text>
<path d="M370,114 L376,114 L376,140 L372,140" fill="none" stroke="#222" stroke-width="1.7" stroke-linejoin="round"/>
<path d="M370,114 L376,114 L376,140 L372,140" fill="none" stroke="#1f5fbf" stroke-width="1.1" stroke-linejoin="round"/>
<rect x="322.7" y="137.4" width="49.3" height="5.2" rx="1" fill="#fff" stroke="#444" stroke-width=".4"/>
<text x="324.2" y="141" font-size="2.4" text-anchor="start" font-weight="normal" fill="#111">90 BL 1.0 <tspan font-family="Arial">→</tspan> earth joint 158 (power sheet)</text>
<circle cx="370" cy="114" r="1.0" fill="#111"/>
<text x="368.6" y="112.6" font-size="1.8" text-anchor="end" font-weight="normal" fill="#555">housing</text>
<path d="M370,101 L378,101" fill="none" stroke="#222" stroke-width="1.7" stroke-linejoin="round"/>
<path d="M370,101 L378,101" fill="none" stroke="#7a4a1c" stroke-width="1.1" stroke-linejoin="round"/>
<text x="380" y="103.5" font-size="2.1" text-anchor="start" font-weight="normal" fill="#111">85a</text>
<text x="18" y="196" font-size="3.4" text-anchor="start" font-weight="bold" fill="#111">Headlight wipers</text>
<rect x="18" y="201" width="36" height="20" rx="1.2" fill="#fafafa" stroke="#111" stroke-width="0.8"/>
<text x="21" y="206" font-size="2.6" text-anchor="start" font-weight="normal" fill="#111"><tspan font-weight="bold">Bar 3–6</tspan></text>
<path d="M24,208.5 L24,218.5" fill="none" stroke="#111" stroke-width=".4"/>
<circle cx="24" cy="211" r=".8" fill="#fff" stroke="#111" stroke-width=".35"/>
<text x="26" y="218" font-size="2.1" text-anchor="start" font-weight="normal" fill="#555">ignition on, unfused</text>
<path d="M24.8,211 L54,211" fill="none" stroke="#111" stroke-width=".4"/>
<circle cx="54" cy="211" r="1.0" fill="#111"/>
<path d="M54,211 L96,211" fill="none" stroke="#222" stroke-width="1.7" stroke-linejoin="round"/>
<path d="M54,211 L96,211" fill="none" stroke="#7a4a1c" stroke-width="1.1" stroke-linejoin="round"/>
<rect x="59.4" y="206.5" width="17.400000000000002" height="3.8" fill="#fff" opacity=".85"/>
<text x="60" y="209.5" font-size="2.8" text-anchor="start" font-weight="normal" fill="#111">94 BR 0.75</text>
<rect x="96" y="204" width="24" height="14" rx="1.2" fill="#fafafa" stroke="#111" stroke-width="0.8"/>
<text x="108" y="201.8" font-size="2.2" text-anchor="middle" font-weight="bold" fill="#111">65 Fuse holder</text>
<circle cx="96" cy="211" r="1.0" fill="#111"/>
<circle cx="120" cy="211" r="1.0" fill="#111"/>
<path d="M96,211 L98.7,211" fill="none" stroke="#111" stroke-width=".4"/>
<circle cx="99.5" cy="211" r=".8" fill="#fff" stroke="#111" stroke-width=".35"/>
<circle cx="116.5" cy="211" r=".8" fill="#fff" stroke="#111" stroke-width=".35"/>
<rect x="103" y="209.8" width="10" height="2.4" fill="#fff" stroke="#111" stroke-width=".4"/><path d="M103,211 L113,211" stroke="#111" stroke-width=".35"/>
<text x="108" y="209" font-size="1.8" text-anchor="middle" font-weight="normal" fill="#555">3 A</text>
<path d="M100.3,211 L103,211" fill="none" stroke="#111" stroke-width=".4"/>
<path d="M113,211 L115.7,211" fill="none" stroke="#111" stroke-width=".4"/>
<path d="M117.3,211 L120,211" fill="none" stroke="#111" stroke-width=".4"/>
<path d="M120,211 L128,211 L128,216 L140,216" fill="none" stroke="#222" stroke-width="1.7" stroke-linejoin="round"/>
<path d="M120,211 L128,211 L128,216 L140,216" fill="none" stroke="#d42020" stroke-width="1.1" stroke-linejoin="round"/>
<text x="121" y="220" font-size="1.9" text-anchor="start" font-weight="normal" fill="#555">95 RD 0.75</text>
<circle cx="128" cy="216" r="1.0" fill="#111"/>
<rect x="140" y="200" width="40" height="32" rx="1.2" fill="#fafafa" stroke="#111" stroke-width="0.8"/>
<text x="160" y="197.6" font-size="2.2" text-anchor="middle" font-weight="bold" fill="#111">67 Headlight wiper relay</text>
<circle cx="140" cy="207" r="1.0" fill="#111"/>
<text x="142" y="205.7" font-size="1.8" text-anchor="start" font-weight="normal" fill="#555">87</text>
<circle cx="140" cy="216" r="1.0" fill="#111"/>
<text x="142" y="214.7" font-size="1.8" text-anchor="start" font-weight="normal" fill="#555">88</text>
<circle cx="180" cy="207" r="1.0" fill="#111"/>
<text x="178" y="205.7" font-size="1.8" text-anchor="end" font-weight="normal" fill="#555">87a</text>
<circle cx="180" cy="216" r="1.0" fill="#111"/>
<text x="178" y="214.7" font-size="1.8" text-anchor="end" font-weight="normal" fill="#555">88a</text>
<circle cx="150" cy="232" r="1.0" fill="#111"/>
<text x="151.5" y="230.6" font-size="1.8" text-anchor="start" font-weight="normal" fill="#555">85</text>
<circle cx="170" cy="232" r="1.0" fill="#111"/>
<text x="168.5" y="230.6" font-size="1.8" text-anchor="end" font-weight="normal" fill="#555">86</text>
<path d="M140,207 H147.2 M140,216 H147.2 M172.8,207 H180 M172.8,216 H180" stroke="#111" stroke-width=".4"/>
<circle cx="148" cy="207" r=".8" fill="#fff" stroke="#111" stroke-width=".35"/>
<circle cx="148" cy="216" r=".8" fill="#fff" stroke="#111" stroke-width=".35"/>
<circle cx="172" cy="207" r=".8" fill="#fff" stroke="#111" stroke-width=".35"/>
<circle cx="172" cy="216" r=".8" fill="#fff" stroke="#111" stroke-width=".35"/>
<path d="M148.7,206.7 L171.2,206.4" stroke="#111" stroke-width=".75" stroke-linecap="round"/>
<path d="M148.7,215.6 L169.2,211.6" stroke="#111" stroke-width=".75" stroke-linecap="round"/>
<rect x="156" y="221" width="8" height="7" fill="#fff" stroke="#111" stroke-width=".4"/><path d="M156,228 L164,221" stroke="#111" stroke-width=".35"/>
<path d="M156,224.5 H150 V232 M164,224.5 H170 V232" fill="none" stroke="#111" stroke-width=".4"/>
<path d="M160,221 L160,207.8" fill="none" stroke="#999" stroke-width=".3" stroke-dasharray=".8 .6"/>
<path d="M140,207 L134,207 L134,186 L140,186" fill="none" stroke="#222" stroke-width="1.7" stroke-linejoin="round"/>
<path d="M140,207 L134,207 L134,186 L140,186" fill="none" stroke="#111111" stroke-width="1.1" stroke-linejoin="round"/>
<rect x="140" y="183.4" width="51.5" height="5.2" rx="1" fill="#fff" stroke="#444" stroke-width=".4"/>
<text x="141.5" y="187" font-size="2.4" text-anchor="start" font-weight="normal" fill="#111">100 SV 0.75 <tspan font-family="Arial">→</tspan> relay 102:31 (ignition sheet)</text>
<path d="M170,232 L170,238 L178,238" fill="none" stroke="#222" stroke-width="1.7" stroke-linejoin="round"/>
<path d="M170,232 L170,238 L178,238" fill="none" stroke="#8a8a8a" stroke-width="1.1" stroke-linejoin="round"/>
<rect x="178" y="235.4" width="59.784000000000006" height="5.2" rx="1" fill="#fff" stroke="#444" stroke-width=".4"/>
<text x="179.5" y="239" font-size="2.6" text-anchor="start" font-weight="normal" fill="#111">96 GR 0.75 <tspan font-family="Arial">←</tspan> wiper switch 61:S via 58 (D8)</text>
<path d="M150,232 L150,238 L134,238 L134,207" fill="none" stroke="#222" stroke-width="1.7" stroke-linejoin="round"/>
<path d="M150,232 L150,238 L134,238 L134,207" fill="none" stroke="#111111" stroke-width="1.1" stroke-linejoin="round"/>
<circle cx="134" cy="207" r="1.0" fill="#111"/>
<text x="135.6" y="242.2" font-size="2.1" text-anchor="start" font-weight="normal" fill="#111">100a SV 0.75</text>
<path d="M283,191.5 H314.5 A10.25,10.25 0 0 1 314.5,212.0 H283 Z" fill="#fafafa" stroke="#111" stroke-width=".8"/>
<circle cx="314.5" cy="201.75" r="7.5" fill="#fff" stroke="#111" stroke-width=".7"/>
<text x="314.5" y="202.95" font-size="3" text-anchor="middle" font-weight="bold" fill="#111">M</text>
<path d="M287,196.2 L287,193.8 L289.4,195 Z" fill="#111" stroke="#111" stroke-width=".25" stroke-linejoin="round"/><path d="M289.4,196.2 L289.4,193.8" stroke="#111" stroke-width=".45"/>
<circle cx="295.5" cy="195" r=".55" fill="#111"/>
<rect x="297.5" y="193.9" width="7" height="2.2" fill="#fff" stroke="#111" stroke-width=".4"/>
<path d="M305.3,197.1 L296.7,192.9" stroke="#111" stroke-width=".35"/>
<path d="M283,195 L287,195" fill="none" stroke="#111" stroke-width=".4"/>
<path d="M289.4,195 L295.5,195 L297.5,195" fill="none" stroke="#111" stroke-width=".4"/>
<path d="M304.5,195 L311.23,195" fill="none" stroke="#111" stroke-width=".4"/>
<path d="M283,199.5 L290.6,199.5" fill="none" stroke="#111" stroke-width=".4"/>
<circle cx="291.4" cy="199.5" r=".8" fill="#fff" stroke="#111" stroke-width=".35"/>
<circle cx="291.4" cy="204.8" r=".8" fill="#fff" stroke="#111" stroke-width=".35"/>
<path d="M291.05,200.15 L289.4,203.55" stroke="#111" stroke-width=".75" stroke-linecap="round"/>
<path d="M295.5,195 L295.5,204.8 L292.2,204.8" fill="none" stroke="#111" stroke-width=".4"/>
<path d="M283,208.5 L311.23,208.5" fill="none" stroke="#111" stroke-width=".4"/>
<circle cx="283" cy="195" r="1.0" fill="#111"/>
<circle cx="283" cy="199.5" r="1.0" fill="#111"/>
<circle cx="283" cy="204.0" r="1.0" fill="#111"/>
<circle cx="283" cy="208.5" r="1.0" fill="#111"/>
<text x="327.75" y="202.75" font-size="2.6" text-anchor="start" font-weight="normal" fill="#111"><tspan font-weight="bold">66</tspan> Headlight wiper motor</text>
<rect x="268" y="192.5" width="6" height="18.5" fill="#ddd" stroke="#111" stroke-width=".5"/>
<path d="M268,195 L274,195" fill="none" stroke="#111" stroke-width=".4"/>
<circle cx="268" cy="195.0" r="1.0" fill="#111"/>
<circle cx="274" cy="195.0" r="1.0" fill="#111"/>
<path d="M274,195.0 H283" stroke="#111" stroke-width=".6"/>
<path d="M268,199.5 L274,199.5" fill="none" stroke="#111" stroke-width=".4"/>
<circle cx="268" cy="199.5" r="1.0" fill="#111"/>
<circle cx="274" cy="199.5" r="1.0" fill="#111"/>
<path d="M274,199.5 H283" stroke="#111" stroke-width=".6"/>
<path d="M268,204 L274,204" fill="none" stroke="#111" stroke-width=".4"/>
<circle cx="268" cy="204.0" r="1.0" fill="#111"/>
<circle cx="274" cy="204.0" r="1.0" fill="#111"/>
<path d="M274,204.0 H283" stroke="#111" stroke-width=".6"/>
<path d="M268,208.5 L274,208.5" fill="none" stroke="#111" stroke-width=".4"/>
<circle cx="268" cy="208.5" r="1.0" fill="#111"/>
<circle cx="274" cy="208.5" r="1.0" fill="#111"/>
<path d="M274,208.5 H283" stroke="#111" stroke-width=".6"/>
<text x="278.5" y="193.6" font-size="2.1" text-anchor="middle" font-weight="normal" fill="#555">123</text>
<path d="M283,221.5 H314.5 A10.25,10.25 0 0 1 314.5,242.0 H283 Z" fill="#fafafa" stroke="#111" stroke-width=".8"/>
<circle cx="314.5" cy="231.75" r="7.5" fill="#fff" stroke="#111" stroke-width=".7"/>
<text x="314.5" y="232.95" font-size="3" text-anchor="middle" font-weight="bold" fill="#111">M</text>
<path d="M287,226.2 L287,223.8 L289.4,225 Z" fill="#111" stroke="#111" stroke-width=".25" stroke-linejoin="round"/><path d="M289.4,226.2 L289.4,223.8" stroke="#111" stroke-width=".45"/>
<circle cx="295.5" cy="225" r=".55" fill="#111"/>
<rect x="297.5" y="223.9" width="7" height="2.2" fill="#fff" stroke="#111" stroke-width=".4"/>
<path d="M305.3,227.1 L296.7,222.9" stroke="#111" stroke-width=".35"/>
<path d="M283,225 L287,225" fill="none" stroke="#111" stroke-width=".4"/>
<path d="M289.4,225 L295.5,225 L297.5,225" fill="none" stroke="#111" stroke-width=".4"/>
<path d="M304.5,225 L311.23,225" fill="none" stroke="#111" stroke-width=".4"/>
<path d="M283,229.5 L290.6,229.5" fill="none" stroke="#111" stroke-width=".4"/>
<circle cx="291.4" cy="229.5" r=".8" fill="#fff" stroke="#111" stroke-width=".35"/>
<circle cx="291.4" cy="234.8" r=".8" fill="#fff" stroke="#111" stroke-width=".35"/>
<path d="M291.05,230.15 L289.4,233.55" stroke="#111" stroke-width=".75" stroke-linecap="round"/>
<path d="M295.5,225 L295.5,234.8 L292.2,234.8" fill="none" stroke="#111" stroke-width=".4"/>
<path d="M283,238.5 L311.23,238.5" fill="none" stroke="#111" stroke-width=".4"/>
<circle cx="283" cy="225" r="1.0" fill="#111"/>
<circle cx="283" cy="229.5" r="1.0" fill="#111"/>
<circle cx="283" cy="238.5" r="1.0" fill="#111"/>
<text x="327.75" y="232.75" font-size="2.6" text-anchor="start" font-weight="normal" fill="#111"><tspan font-weight="bold">66</tspan> Headlight wiper motor</text>
<rect x="268" y="222.5" width="6" height="18.5" fill="#ddd" stroke="#111" stroke-width=".5"/>
<path d="M268,225 L274,225" fill="none" stroke="#111" stroke-width=".4"/>
<circle cx="268" cy="225.0" r="1.0" fill="#111"/>
<circle cx="274" cy="225.0" r="1.0" fill="#111"/>
<path d="M274,225.0 H283" stroke="#111" stroke-width=".6"/>
<path d="M268,229.5 L274,229.5" fill="none" stroke="#111" stroke-width=".4"/>
<circle cx="268" cy="229.5" r="1.0" fill="#111"/>
<circle cx="274" cy="229.5" r="1.0" fill="#111"/>
<path d="M274,229.5 H283" stroke="#111" stroke-width=".6"/>
<path d="M268,238.5 L274,238.5" fill="none" stroke="#111" stroke-width=".4"/>
<circle cx="268" cy="238.5" r="1.0" fill="#111"/>
<circle cx="274" cy="238.5" r="1.0" fill="#111"/>
<path d="M274,238.5 H283" stroke="#111" stroke-width=".6"/>
<text x="278.5" y="223.6" font-size="2.1" text-anchor="middle" font-weight="normal" fill="#555">123</text>
<path d="M128,216 L128,192 L261,192 L268,199.5" fill="none" stroke="#222" stroke-width="1.7" stroke-linejoin="round"/>
<path d="M128,216 L128,192 L261,192 L268,199.5" fill="none" stroke="#d42020" stroke-width="1.1" stroke-linejoin="round"/>
<rect x="193.4" y="187.5" width="19.02" height="3.8" fill="#fff" opacity=".85"/>
<text x="194" y="190.5" font-size="2.8" text-anchor="start" font-weight="normal" fill="#111">95a RD 0.75</text>
<path d="M180,216 L246,216 L246,188 L268,188 L268,195" fill="none" stroke="#222" stroke-width="1.7" stroke-linejoin="round"/>
<path d="M180,216 L246,216 L246,188 L268,188 L268,195" fill="none" stroke="#f2c500" stroke-width="1.1" stroke-linejoin="round"/>
<rect x="191.4" y="211.5" width="17.400000000000002" height="3.8" fill="#fff" opacity=".85"/>
<text x="192" y="214.5" font-size="2.8" text-anchor="start" font-weight="normal" fill="#111">98 GL 0.75</text>
<path d="M268,199.5 L253,199.5 L253,229.5 L268,229.5" fill="none" stroke="#222" stroke-width="1.7" stroke-linejoin="round"/>
<path d="M268,199.5 L253,199.5 L253,229.5 L268,229.5" fill="none" stroke="#d42020" stroke-width="1.1" stroke-linejoin="round"/>
<text x="250.9" y="226" font-size="2.8" text-anchor="start" font-weight="normal" fill="#111" transform="rotate(-90 250.9 226)">95b RD 0.75</text>
<path d="M268,204.0 L260,204.0 L260,225 L268,225" fill="none" stroke="#222" stroke-width="1.7" stroke-linejoin="round"/>
<path d="M268,204.0 L260,204.0 L260,225 L268,225" fill="none" stroke="#7a4a1c" stroke-width="1.1" stroke-linejoin="round"/>
<text x="257.8" y="222.5" font-size="2.1" text-anchor="start" font-weight="normal" fill="#111" transform="rotate(-90 257.8 222.5)">97 BR 0.75</text>
<path d="M268,208.5 L265,208.5 L265,213.0" fill="none" stroke="#222" stroke-width="1.7" stroke-linejoin="round"/>
<path d="M268,208.5 L265,208.5 L265,213.0" fill="none" stroke="#111111" stroke-width="1.1" stroke-linejoin="round"/>
<path d="M265,213.0 v3 M262,216.0 h6 M263,217.3 h4 M264,218.6 h2" stroke="#111" stroke-width=".5" fill="none"/>
<text x="269.5" y="216.8" font-size="2.1" text-anchor="start" font-weight="normal" fill="#111">99 SV 0.75</text>
<path d="M268,238.5 L262,238.5 L262,240.5" fill="none" stroke="#222" stroke-width="1.7" stroke-linejoin="round"/>
<path d="M268,238.5 L262,238.5 L262,240.5" fill="none" stroke="#111111" stroke-width="1.1" stroke-linejoin="round"/>
<path d="M262,240.5 v3 M259,243.5 h6 M260,244.8 h4 M261,246.1 h2" stroke="#111" stroke-width=".5" fill="none"/>
<text x="266" y="245.8" font-size="2.1" text-anchor="start" font-weight="normal" fill="#111">99a SV 0.75</text>
<circle cx="268" cy="195" r="1.0" fill="#111"/>
<circle cx="268" cy="199.5" r="1.0" fill="#111"/>
<circle cx="268" cy="204.0" r="1.0" fill="#111"/>
<circle cx="268" cy="208.5" r="1.0" fill="#111"/>
<circle cx="268" cy="225" r="1.0" fill="#111"/>
<circle cx="268" cy="229.5" r="1.0" fill="#111"/>
<circle cx="268" cy="238.5" r="1.0" fill="#111"/>
<rect x="18" y="249" width="389" height="38" rx="1.2" fill="#fff" stroke="#111" stroke-width="0.5"/>
<path d="M22,254 h7" stroke="#222" stroke-width="1.7"/><path d="M22,254 h7" stroke="#1f5fbf" stroke-width="1.1"/>
<text x="31" y="255" font-size="2.5" text-anchor="start" font-weight="normal" fill="#111">BL Blue</text>
<path d="M45,254 h7" stroke="#222" stroke-width="1.7"/><path d="M45,254 h7" stroke="#7a4a1c" stroke-width="1.1"/>
<text x="54" y="255" font-size="2.5" text-anchor="start" font-weight="normal" fill="#111">BR Brown</text>
<path d="M68,254 h7" stroke="#222" stroke-width="1.7"/><path d="M68,254 h7" stroke="#f2c500" stroke-width="1.1"/>
<text x="77" y="255" font-size="2.5" text-anchor="start" font-weight="normal" fill="#111">GL Yellow</text>
<path d="M91,254 h7" stroke="#222" stroke-width="1.7"/><path d="M91,254 h7" stroke="#1e9e3e" stroke-width="1.1"/>
<text x="100" y="255" font-size="2.5" text-anchor="start" font-weight="normal" fill="#111">GN Green</text>
<path d="M22,259 h7" stroke="#222" stroke-width="1.7"/><path d="M22,259 h7" stroke="#8a8a8a" stroke-width="1.1"/>
<text x="31" y="260" font-size="2.5" text-anchor="start" font-weight="normal" fill="#111">GR Grey</text>
<path d="M45,259 h7" stroke="#222" stroke-width="1.7"/><path d="M45,259 h7" stroke="#d42020" stroke-width="1.1"/>
<text x="54" y="260" font-size="2.5" text-anchor="start" font-weight="normal" fill="#111">RD Red</text>
<path d="M68,259 h7" stroke="#222" stroke-width="1.7"/><path d="M68,259 h7" stroke="#111111" stroke-width="1.1"/>
<text x="77" y="260" font-size="2.5" text-anchor="start" font-weight="normal" fill="#111">SV Black</text>
<path d="M91,259 h7" stroke="#222" stroke-width="1.7"/><path d="M91,259 h7" stroke="#ffffff" stroke-width="1.1"/>
<text x="100" y="260" font-size="2.5" text-anchor="start" font-weight="normal" fill="#111">VT White</text>
<path d="M22,266 h9" stroke="#222" stroke-width="1.2"/>
<text x="33" y="267" font-size="2.4" text-anchor="start" font-weight="normal" fill="#111">traced (cable no. read)</text>
<circle cx="23" cy="272" r=".8" fill="#fff" stroke="#888" stroke-width=".35"/>
<circle cx="30" cy="272" r=".8" fill="#fff" stroke="#888" stroke-width=".35"/>
<path d="M23.7,271.7 L29.6,269.6" stroke="#888" stroke-width=".75" stroke-linecap="round"/>
<text x="33" y="273" font-size="2.4" text-anchor="start" font-weight="normal" fill="#111">grey inside a part: probably, not printed clearly</text>
<path d="M22,278 h9" stroke="#999" stroke-width=".3" stroke-dasharray=".8 .6"/>
<circle cx="33.3" cy="278" r="1.3" fill="#fff" stroke="#888" stroke-width=".25"/>
<text x="33.3" y="278.72" font-size="2" text-anchor="middle" font-weight="bold" fill="#777">2</text>
<text x="36" y="279" font-size="2.4" text-anchor="start" font-weight="normal" fill="#111">switch position line, as printed (numbered as the GLE figure)</text>
<text x="126" y="253.3" font-size="2.3" text-anchor="start" font-weight="normal" fill="#333">Wipers run from fuse 4 on the ignition-on bar: 85 BR to the switch (53a) and two 85a BR leads, to the interval relay and to motor terminal 4.</text>
<text x="126" y="256.8" font-size="2.3" text-anchor="start" font-weight="normal" fill="#333">The washer switch signal (91 GL) goes to the interval relay, which feeds the washer pump (91a GL), so it can wipe while washing. Relay and pump earth at joint 158 (83 SV, 92 SV); 361 SV, the right front lamp housing’s earth, shares the pump’s earth terminal.</text>
<text x="126" y="260.3" font-size="2.3" text-anchor="start" font-weight="normal" fill="#333">Speed wires: 87 GN to motor terminal 3, 86 RD to terminal 5 (through connector 58 at D8); 85a feeds 4, 88a is the park contact (2). 89 SV joins terminal 1 to the housing, which 90 BL (probably; the 1977 diagram draws it) earths at joint 158.</text>
<text x="126" y="263.8" font-size="2.3" text-anchor="start" font-weight="normal" fill="#333">Switch 61 as the book draws it: lever at rest (0), a dashed line per notch through the pivot, no numbers (ours as the GLE figure, p. 370; 4 its text). White slots insulate the lever’s arms: its 31b and 53a sides join apart. Pulling (4) adds S and 54c to the 53a group.</text>
<text x="126" y="267.3" font-size="2.3" text-anchor="start" font-weight="normal" fill="#333">The park link from the lever (up, over and down) stops short of 53 (grey: probably joined; park, braking and interval need it). P–Q, between the 54c and S lines, is printed closed, so fast would run the washer: probably a misprint (GLE keeps them apart; D10).</text>
<text x="126" y="270.8" font-size="2.3" text-anchor="start" font-weight="normal" fill="#333">The 1977 Turbo diagram (addendum p. 53) draws the park link closed and has no S–54c link, which supports the table’s grey and unsure marks. It also draws 96 GR from S to 58; the 1979 print leaves out S to 58 (D8).</text>
<text x="126" y="274.3" font-size="2.3" text-anchor="start" font-weight="normal" fill="#333">Headlight wipers: unfused tap 94 BR from bar 3–6, a 3 A glass fuse in holder 65 (manual, PDF p. 30), relay 67. Outside 67, 100a SV joins 85 to 87 (the 1979 print draws a T, the 1977 the whole loop), so 100 SV earths the coil.</text>
<text x="126" y="277.8" font-size="2.3" text-anchor="start" font-weight="normal" fill="#333">Relay 67: 88 is + from the 3 A fuse; 95a RD takes it to upper plug row 2 (probably) and 95b RD on to lower row 2 (the park switches); 88a switches 98 GL to the upper motor’s diode (row 1). Rows of 123 counted from the top (none printed); 66 and 123 drawn mirrored.</text>
<text x="126" y="281.3" font-size="2.3" text-anchor="start" font-weight="normal" fill="#333">97 BR runs from upper plug row 3 (nothing inside motor 66 uses it) to lower plug row 1, so as printed the lower motor gets no start feed; on the car both run together (E10), so the book leaves out a link, probably row 3 to row 1 inside the upper motor.</text>
<text x="126" y="284.8" font-size="2.3" text-anchor="start" font-weight="normal" fill="#333">Diagram is not RHD-specific; the switch and relay positions (D8/D9) are drawing grid squares, not locations in the car. Light-grey terminal labels on 61 (31b, 54c, INT, 53, 53b) are probable; S and 53a are read.</text>
</svg>